<svg xmlns="http://www.w3.org/2000/svg" viewBox="370.38 366.67 289.52 289.52">
  <g fill="#EF7360">
    <circle cx="414.07" cy="387.49" r="9.54"/>
    <circle cx="463.30" cy="384.66" r="6.93"/>
    <circle cx="521.19" cy="391.01" r="13.54"/>
    <circle cx="492.52" cy="384.96" r="6.98"/>
    <circle cx="477.41" cy="398.41" r="6.96"/>
    <circle cx="573.58" cy="404.95" r="13.46"/>
    <circle cx="434.29" cy="400.50" r="7.36"/>
    <circle cx="455.03" cy="404.80" r="7.65"/>
    <circle cx="499.70" cy="407.07" r="6.79"/>
    <circle cx="410.08" cy="408.13" r="6.72"/>
    <circle cx="544.46" cy="412.59" r="11.00"/>
    <circle cx="390.80" cy="413.01" r="7.80"/>
    <circle cx="602.75" cy="417.72" r="7.02"/>
    <circle cx="437.25" cy="417.77" r="6.68"/>
    <circle cx="521.86" cy="421.69" r="7.65"/>
    <circle cx="418.35" cy="425.47" r="6.91"/>
    <circle cx="585.41" cy="428.80" r="6.41"/>
    <circle cx="455.77" cy="432.70" r="7.96"/>
    <circle cx="560.58" cy="431.27" r="6.82"/>
    <circle cx="389.01" cy="432.55" r="6.60"/>
    <circle cx="505.04" cy="431.89" r="6.72"/>
    <circle cx="541.61" cy="436.67" r="6.98"/>
    <circle cx="615.07" cy="443.67" r="13.49"/>
    <circle cx="575.00" cy="438.96" r="5.78"/>
    <circle cx="408.10" cy="448.76" r="13.72"/>
    <circle cx="435.85" cy="441.90" r="7.61"/>
    <circle cx="522.93" cy="447.18" r="9.57"/>
    <circle cx="478.69" cy="445.66" r="6.98"/>
    <circle cx="497.53" cy="447.44" r="6.77"/>
    <circle cx="562.44" cy="453.44" r="7.18"/>
    <circle cx="459.63" cy="457.71" r="7.92"/>
    <circle cx="542.46" cy="458.60" r="6.89"/>
    <circle cx="430.56" cy="463.47" r="6.91"/>
    <circle cx="393.20" cy="473.74" r="10.33"/>
    <circle cx="614.66" cy="469.96" r="6.72"/>
    <circle cx="560.94" cy="475.08" r="9.17"/>
    <circle cx="443.83" cy="478.32" r="6.77"/>
    <circle cx="461.42" cy="479.30" r="7.18"/>
    <circle cx="585.10" cy="482.07" r="7.18"/>
    <circle cx="416.84" cy="484.53" r="9.41"/>
    <circle cx="602.16" cy="481.67" r="6.48"/>
    <circle cx="437.62" cy="501.39" r="11.13"/>
    <circle cx="462.54" cy="497.31" r="6.89"/>
    <circle cx="597.37" cy="504.94" r="11.33"/>
    <circle cx="413.10" cy="509.35" r="7.78"/>
    <circle cx="641.50" cy="512.14" r="6.38"/>
    <circle cx="573.03" cy="516.48" r="9.76"/>
    <circle cx="392.74" cy="524.18" r="9.67"/>
    <circle cx="618.19" cy="521.85" r="7.67"/>
    <circle cx="431.62" cy="531.31" r="13.70"/>
    <circle cx="598.54" cy="530.85" r="7.14"/>
    <circle cx="639.22" cy="532.95" r="6.86"/>
    <circle cx="579.79" cy="537.12" r="6.79"/>
    <circle cx="621.79" cy="550.23" r="13.66"/>
    <circle cx="462.68" cy="543.90" r="6.84"/>
    <circle cx="447.95" cy="548.41" r="5.94"/>
    <circle cx="559.77" cy="549.45" r="7.05"/>
    <circle cx="593.58" cy="551.37" r="7.51"/>
    <circle cx="419.78" cy="553.71" r="6.23"/>
    <circle cx="576.00" cy="562.58" r="7.23"/>
    <circle cx="460.40" cy="569.94" r="7.84"/>
    <circle cx="552.02" cy="569.85" r="7.74"/>
    <circle cx="606.30" cy="570.94" r="6.86"/>
    <circle cx="500.82" cy="574.00" r="6.72"/>
    <circle cx="527.87" cy="578.80" r="11.35"/>
    <circle cx="589.11" cy="575.17" r="6.63"/>
    <circle cx="481.36" cy="576.87" r="7.78"/>
    <circle cx="414.78" cy="588.76" r="13.56"/>
    <circle cx="569.09" cy="591.31" r="13.68"/>
    <circle cx="503.98" cy="595.47" r="9.89"/>
    <circle cx="390.31" cy="594.21" r="7.05"/>
    <circle cx="438.00" cy="594.00" r="6.79"/>
    <circle cx="546.60" cy="601.32" r="6.33"/>
    <circle cx="526.82" cy="614.81" r="13.54"/>
    <circle cx="398.57" cy="611.24" r="7.33"/>
    <circle cx="461.42" cy="610.39" r="7.09"/>
    <circle cx="439.56" cy="614.80" r="9.18"/>
    <circle cx="484.33" cy="613.19" r="7.57"/>
    <circle cx="565.14" cy="622.96" r="13.68"/>
    <circle cx="415.96" cy="617.11" r="6.68"/>
    <circle cx="591.19" cy="617.86" r="6.84"/>
    <circle cx="422.68" cy="635.99" r="9.25"/>
    <circle cx="494.27" cy="637.05" r="8.14"/>
    <circle cx="542.46" cy="636.73" r="7.07"/>
    <circle cx="518.12" cy="638.61" r="6.79"/>
    <circle cx="444.74" cy="638.89" r="6.58"/>
  </g>
  <g fill="#6CC8B4">
    <circle cx="441.04" cy="383.97" r="6.58"/>
    <circle cx="390.39" cy="387.67" r="6.98"/>
    <circle cx="549.03" cy="387.21" r="6.75"/>
    <circle cx="480.93" cy="421.98" r="11.56"/>
    <circle cx="587.82" cy="458.52" r="11.63"/>
    <circle cx="633.41" cy="463.75" r="7.02"/>
    <circle cx="628.54" cy="490.86" r="13.67"/>
    <circle cx="569.81" cy="495.03" r="6.91"/>
    <circle cx="389.08" cy="500.45" r="6.56"/>
    <circle cx="459.38" cy="520.00" r="9.90"/>
    <circle cx="408.02" cy="538.04" r="6.77"/>
    <circle cx="389.90" cy="550.57" r="7.07"/>
    <circle cx="436.50" cy="563.00" r="9.37"/>
    <circle cx="404.69" cy="562.33" r="7.02"/>
    <circle cx="389.84" cy="575.24" r="7.00"/>
    <circle cx="624.85" cy="578.27" r="7.18"/>
    <circle cx="446.71" cy="581.71" r="5.92"/>
    <circle cx="602.41" cy="597.38" r="11.38"/>
    <circle cx="473.48" cy="593.67" r="7.11"/>
    <circle cx="455.68" cy="594.53" r="6.08"/>
    <circle cx="502.24" cy="618.81" r="6.93"/>
    <circle cx="467.81" cy="633.26" r="11.53"/>
    <circle cx="394.21" cy="633.68" r="9.56"/>
  </g>
</svg>
